<svg xmlns="http://www.w3.org/2000/svg" width="161" height="35" viewBox="0 0 161 35">
  <g fill="none" fill-rule="evenodd">
    <path fill="#1A1919" d="M30.3745068,13.3626224 C30.6449165,13.054557 30.9253414,12.7304883 31.1156297,12.5134422 C28.2212443,9.59282272 25.4270106,6.7712242 22.5626707,3.87460977 C22.2522003,4.2066802 21.9517451,4.52474767 21.6813354,4.82181069 C22.5827011,6.18710029 29.4030349,12.8925227 30.3745068,13.3626224 Z M22.5125948,31.1423938 C25.4370258,28.2307762 28.2512898,25.4331828 31.1156297,22.5835783 C31.0254932,22.4705544 30.9053111,22.2785136 30.7550835,22.1264814 C30.5948407,21.9724487 30.4045524,21.8574243 30.0740516,21.615373 C27.0494689,24.2479314 24.4955994,27.3205832 21.5511381,29.9991513 C21.7514416,30.3212197 21.831563,30.4902555 21.9517451,30.6192829 C22.1320182,30.8173249 22.3423369,30.9883612 22.5125948,31.1423938 Z M19.7984825,28.3998121 C22.7128983,25.5121996 25.5271624,22.7216076 28.491654,19.7859849 C28.3013657,19.5659382 28.0209408,19.2428697 27.7705615,18.956809 C24.7660091,21.9674476 21.9817906,24.7520383 19.0273141,27.7026642 C19.3277693,27.9777225 19.6482549,28.2687843 19.7984825,28.3998121 Z M9.11229135,17.542509 C9.5629742,18.3676841 16.3632777,25.2151365 17.5250379,25.9792986 C18.8370258,25.0841088 25.507132,18.3176734 25.9377845,17.4364865 C24.4655539,15.6171006 18.2962064,9.59582336 17.5050076,9.17073319 C14.7107739,11.9663262 11.9165402,14.7449156 9.11229135,17.542509 Z M15.1915023,28.4458218 C15.3918058,28.2667839 15.6822458,28.0007274 15.9526555,27.7566757 C13.0182094,24.8100506 10.2139605,21.9874519 7.36965099,19.1198436 C7.23945372,19.2238657 7.0491654,19.3468918 6.89893778,19.5089261 C6.74871017,19.6679599 6.64855842,19.8670021 6.64855842,19.862001 C9.53292868,22.756615 12.3271624,25.5682114 15.1915023,28.4458218 Z M12.537481,31.1463947 C12.7978756,30.8653351 13.108346,30.516261 13.5189681,30.0671658 C10.6245827,27.1825539 7.83034901,24.396963 4.97602428,21.540357 C4.51532625,21.945443 4.18482549,22.2355045 3.90440061,22.4905586 C6.83884674,25.4381839 9.6430956,28.2467796 12.537481,31.1463947 Z M12.2971168,3.85860637 C9.43277693,6.72321402 6.59848255,9.5498136 3.71411229,12.4354257 C4.16479514,12.8485133 4.46525038,13.1165702 4.80576631,13.4326372 C6.44825493,12.168369 12.7778452,5.73300397 13.3086495,4.80280666 C13.1784522,4.6417725 13.0582701,4.44673112 12.8980273,4.29269845 C12.7477997,4.14266663 12.5474962,4.03564392 12.2971168,3.85860637 Z M15.231563,6.70120935 C12.3171472,9.59882399 9.51289833,12.3974176 6.56843703,15.3300397 C6.73869499,15.5260813 7.01911988,15.845149 7.20940819,16.057194 C10.2339909,13.0505562 13.0582701,10.2419604 15.9526555,7.35434789 C15.692261,7.11929803 15.3717754,6.83023672 15.231563,6.70120935 Z M19.477997,6.94726154 C19.36783,7.07628891 19.2776935,7.24232413 18.9371775,7.76543509 C21.7814871,10.5950353 24.5957511,13.3906283 27.5101669,16.2832419 C27.9908953,15.7071197 28.2713202,15.3770497 28.5317147,15.0709848 C27.0094082,13.1375746 20.3493171,6.62719365 19.8685888,6.6471061 C19.768437,6.72421423 19.6081942,6.81723396 19.477997,6.94726154 Z M31.6364188,14.9649623 C32.4176024,15.7881369 33.1587253,16.5763041 34,17.4664929 C33.1887709,18.315673 32.4075873,19.1288455 31.5362671,20.0420392 C32.4176024,20.9532325 33.2288316,21.7974116 33.9499241,22.5445701 C30.1241275,26.3623799 26.3884674,30.0951717 22.5426404,33.9389871 C21.8515933,33.2978511 21.030349,32.5276877 20.1389985,31.6845088 C19.2776935,32.3896584 18.446434,33.0788046 17.4549317,33.8969781 C16.6737481,33.1578214 15.8925645,32.4256661 15.0112291,31.5924893 C14.1298938,32.4196648 13.2685888,33.2188343 12.4373293,34 C11.3256449,33.3678659 2.99301973,25.0811081 1,22.6315885 C1.83125948,21.7654048 2.62245827,20.9512321 3.49377845,20.0440396 C2.63247344,19.1578517 1.85128983,18.3536811 1,17.476495 C1.83125948,16.6123117 2.58239757,15.8301458 3.41365706,14.9639621 C2.5723824,14.0927773 1.78118361,13.2836056 1.14021244,12.6164641 C4.9660091,8.79765405 8.7016692,5.05886097 12.5575114,1.21104477 C13.1984825,1.81017185 14.0197269,2.58333586 14.9411229,3.45452066 C15.7823976,2.64634923 16.5936267,1.86918437 17.4949924,1 C18.3963581,1.84317886 19.2075873,2.61434244 20.108953,3.45652108 C20.9802731,2.62034371 21.7915023,1.8381778 22.462519,1.19304095 C26.2883156,5.011851 30.0339909,8.74864365 33.8798179,12.5824569 C33.2588771,13.2415967 32.4877086,14.0617707 31.6364188,14.9649623 Z M14.2200303,17.4044797 C15.4418816,18.6097354 16.5135053,19.6559573 17.5250379,20.6521686 C18.5566009,19.6559573 19.6582701,18.5927318 20.6698027,17.6075228 C19.5280728,16.4992877 18.3963581,15.4090565 17.2345979,14.2818174 C16.2831563,15.2640257 15.2415781,16.3432546 14.2200303,17.4044797 Z M17.4749621,11.3812021 C19.538088,13.4566423 21.5711684,15.4930743 23.7144158,17.6435304 C21.7213961,19.6349529 19.6282246,21.7163944 17.4549317,23.887855 C15.3016692,21.7163944 13.108346,19.8009881 11.3456753,17.6105234 C13.4488619,15.4740703 15.461912,13.4286364 17.4749621,11.3812021 Z"/>
    <polygon fill="#1A1919" fill-rule="nonzero" points="61.772 9 63 9 57.18 27 55.854 27 50.525 10.851 45.171 27 43.845 27 38 9 39.326 9 44.557 25.2 49.935 9 51.139 9 56.492 25.226"/>
    <polygon fill="#1A1919" fill-rule="nonzero" points="69.267 25.817 80 25.817 80 27 68 27 68 9 79.627 9 79.627 10.183 69.267 10.183 69.267 17.28 78.534 17.28 78.534 18.437 69.267 18.437"/>
    <path fill="#1A1919" fill-rule="nonzero" d="M94.2175439 17.7171429C96.6491228 18.2057143 98 19.7485714 98 22.2428571 98 25.2771429 95.8877193 27 91.6631579 27L84 27 84 9 91.1719298 9C94.8561404 9 97.0912281 10.62 97.0912281 13.6028571 97.0912281 15.7371429 95.9368421 17.1257143 94.2175439 17.7171429zM91.122807 10.1314286L85.2526316 10.1314286 85.2526316 17.3057143 91.122807 17.3057143C94.0947368 17.3057143 95.8140351 16.0971429 95.8140351 13.7057143 95.8140351 11.34 94.0947368 10.1314286 91.122807 10.1314286zM91.6631579 25.8685714C94.954386 25.8685714 96.7473684 24.7371429 96.7473684 22.14 96.7473684 19.5685714 94.954386 18.4371429 91.6631579 18.4371429L85.2526316 18.4371429 85.2526316 25.8685714 91.6631579 25.8685714zM102 27L102 9 110.130682 9C115.985795 9 120 12.5485714 120 18 120 23.4514286 115.985795 27 110.130682 27L102 27zM106.142045 23.58L109.926136 23.58C113.480114 23.58 115.806818 21.4457143 115.806818 18 115.806818 14.5542857 113.480114 12.42 109.926136 12.42L106.142045 12.42 106.142045 23.58z"/>
    <polygon fill="#1A1919" fill-rule="nonzero" points="127.159 23.657 137 23.657 137 27 123 27 123 9 136.664 9 136.664 12.343 127.159 12.343 127.159 16.251 135.554 16.251 135.554 19.491 127.159 19.491"/>
    <polygon fill="#1A1919" fill-rule="nonzero" points="156.001 9 160 9 152.475 27 148.501 27 141 9 145.346 9 150.637 21.857"/>
  </g>
</svg>
